<?xml version="1.0" encoding="UTF-8" standalone="no"?>
<!DOCTYPE svg PUBLIC "-//W3C//DTD SVG 1.1//EN" "http://www.w3.org/Graphics/SVG/1.1/DTD/svg11.dtd">
<svg width="100%" height="100%" viewBox="0 0 100 125" version="1.1" xmlns="http://www.w3.org/2000/svg" xmlns:xlink="http://www.w3.org/1999/xlink" xml:space="preserve" style="fill-rule:evenodd;clip-rule:evenodd;stroke-linejoin:round;stroke-miterlimit:1.41421;">
    <path d="M12.821,95L23.257,95L23.257,71.721C23.257,68.167 24.924,64.764 27.861,62.761C30.338,61.071 33.596,60.046 37.17,60.046C44.187,60.046 49.987,64.001 51.046,69.169L50.165,68.282C48.516,66.621 46.349,65.79 44.182,65.79C42.015,65.79 39.848,66.62 38.199,68.282C34.9,71.604 34.9,77.01 38.199,80.332L51.721,93.948L51.861,93.807L52,93.948L65.522,80.332C68.821,77.01 68.821,71.604 65.522,68.282C63.872,66.621 61.706,65.79 59.539,65.79C57.372,65.79 55.205,66.62 53.556,68.282L52.886,68.957C54.08,64.702 58.971,61.508 64.859,61.508C66.064,61.508 67.228,61.642 68.327,61.891C73.285,63.014 76.743,67.517 76.743,72.601L76.743,95L87.673,95L87.673,54.261L92.558,54.261C94.636,54.261 95.703,51.776 94.257,50.274L50.724,5L32.361,23.492L32.361,16.367L21.705,16.367L21.705,34.215L19.124,36.811L5.76,50.274C4.3,51.748 5.339,54.247 7.402,54.261L12.821,54.261L12.821,95ZM64.859,40.699C69.034,40.699 72.419,44.648 72.419,49.519C72.419,54.39 69.034,58.339 64.859,58.339C60.684,58.339 57.299,54.39 57.299,49.519C57.299,44.648 60.684,40.699 64.859,40.699ZM37.169,36.219C41.95,36.219 45.826,40.741 45.826,46.319C45.826,51.897 41.95,56.419 37.169,56.419C32.388,56.419 28.512,51.897 28.512,46.319C28.512,40.741 32.388,36.219 37.169,36.219Z" style="fill-rule:nonzero;"/>
</svg>
